<svg xmlns="http://www.w3.org/2000/svg" version="1.1" xmlns:xlink="http://www.w3.org/1999/xlink" xmlns:svgjs="http://svgjs.dev/svgjs" width="2000" height="2000" viewBox="0 0 2000 2000"><g transform="matrix(1,0,0,1,-0.28443113772425477,-0.28443113772459583)"><svg viewBox="0 0 334 334" data-background-color="#ffffff" preserveAspectRatio="xMidYMid meet" height="2000" width="2000" xmlns="http://www.w3.org/2000/svg" xmlns:xlink="http://www.w3.org/1999/xlink"><g id="tight-bounds" transform="matrix(1,0,0,1,0.04749999999998522,0.04750000000001364)"><svg viewBox="0 0 333.90454557049503 333.90454557049503" height="333.90454557049503" width="333.90454557049503"><g><svg></svg></g><g><svg viewBox="0 0 333.90454557049503 333.90454557049503" height="333.90454557049503" width="333.90454557049503"><g><path d="M0 166.952c0-92.205 74.747-166.952 166.952-166.952 92.205 0 166.952 74.747 166.953 166.952 0 92.205-74.747 166.952-166.953 166.953-92.205 0-166.952-74.747-166.952-166.953zM166.952 316.63c82.665 0 149.677-67.013 149.678-149.678 0-82.665-67.013-149.677-149.678-149.677-82.665 0-149.677 67.013-149.677 149.677 0 82.665 67.013 149.677 149.677 149.678z" data-fill-palette-color="tertiary" fill="#ff4a3f" stroke="transparent"></path><ellipse rx="160.27418187383762" ry="160.27418187383762" cx="166.95227278524752" cy="166.95227278524752" fill="#ff4a3f" stroke="transparent" stroke-width="0" fill-opacity="1" data-fill-palette-color="tertiary"></ellipse></g><g transform="matrix(1,0,0,1,112.75646868317047,71.17305217166896)"><svg viewBox="0 0 108.3916082041541 191.55844122715712" height="191.55844122715712" width="108.3916082041541"><g><svg viewBox="0 0 108.3916082041541 191.55844122715712" height="191.55844122715712" width="108.3916082041541"><g><svg viewBox="0 0 108.3916082041541 191.55844122715712" height="191.55844122715712" width="108.3916082041541"><g id="textblocktransform"><svg viewBox="0 0 108.3916082041541 191.55844122715712" height="191.55844122715712" width="108.3916082041541" id="textblock"><g><svg viewBox="0 0 108.3916082041541 191.55844122715712" height="191.55844122715712" width="108.3916082041541"><g transform="matrix(1,0,0,1,0,0)"><svg width="108.3916082041541" viewBox="1.27 -35.84 21.19 37.45" height="191.55844122715712" data-palette-color="#ffffff"><path d="M22.46-35.84L22.46-35.84Q22.22-32.86 22.27-29.91 22.31-26.95 22.22-24.02L22.22-24.02 16.8-24.22Q16.75-22.51 16.72-20.85 16.7-19.19 16.7-17.48L16.7-17.48Q16.7-15.43 16.72-13.45 16.75-11.47 16.8-9.42L16.8-9.42 21.78-9.33Q21.68-7.91 21.68-6.45 21.68-4.98 21.68-3.52L21.68-3.52Q21.68-2.29 21.75-1.07 21.83 0.15 22.07 1.32L22.07 1.32 4.54 1.61Q4.54-0.78 4.49-3.1 4.44-5.42 4.3-7.81L4.3-7.81 7.47-7.86Q7.23-12.45 6.91-16.94 6.59-21.44 6.25-25.98L6.25-25.98 1.61-26.56Q1.51-28.61 1.44-30.64 1.37-32.67 1.27-34.72L1.27-34.72Q6.59-34.91 11.84-35.18 17.09-35.45 22.46-35.84Z" opacity="1" transform="matrix(1,0,0,1,0,0)" fill="#ffffff" class="wordmark-text-0" data-fill-palette-color="quaternary" id="text-0"></path></svg></g></svg></g></svg></g></svg></g></svg></g></svg></g></svg></g><defs></defs></svg><rect width="333.90454557049503" height="333.90454557049503" fill="none" stroke="none" visibility="hidden"></rect></g></svg></g></svg>